<?xml version="1.0" standalone="no"?>
<!DOCTYPE svg PUBLIC "-//W3C//DTD SVG 20010904//EN"
 "http://www.w3.org/TR/2001/REC-SVG-20010904/DTD/svg10.dtd">
<svg version="1.0" xmlns="http://www.w3.org/2000/svg"
 width="64.000000pt" height="64.000000pt" viewBox="0 0 64.000000 64.000000"
 preserveAspectRatio="xMidYMid meet">

<g transform="translate(0.000000,64.000000) scale(0.100000,-0.100000)"
fill="#000000" stroke="none">
<path d="M290 614 c-8 -2 -32 -5 -52 -9 -20 -3 -60 -21 -88 -40 l-50 -34 0 40
c0 21 -5 39 -11 39 -6 0 -9 -21 -7 -52 l3 -53 53 -3 c31 -2 52 1 52 7 0 6 -16
11 -36 11 -33 0 -35 2 -23 17 29 34 111 63 179 63 156 -1 270 -115 270 -270
-1 -133 -85 -238 -217 -269 -37 -9 -37 -9 -7 -10 16 -1 53 11 82 25 168 83
209 303 83 447 -50 57 -165 102 -231 91z"/>
<path d="M275 550 c-15 -6 -7 -9 32 -9 28 -1 60 -4 70 -7 12 -5 15 -4 8 3 -14
15 -86 24 -110 13z"/>
<path d="M425 510 c3 -5 11 -10 16 -10 6 0 7 5 4 10 -3 6 -11 10 -16 10 -6 0
-7 -4 -4 -10z"/>
<path d="M300 455 c0 -8 -4 -15 -10 -15 -17 0 -50 -39 -50 -58 0 -33 26 -55
71 -61 42 -6 44 -7 44 -41 0 -25 -5 -36 -17 -38 -14 -3 -18 3 -18 27 0 17 -4
31 -10 31 -5 0 -10 -13 -10 -30 0 -32 -26 -43 -36 -15 -4 8 -10 15 -15 15 -17
0 10 -38 31 -45 11 -3 20 -13 20 -21 0 -8 5 -14 10 -14 6 0 10 6 10 13 0 8 11
19 25 25 45 21 42 92 -5 107 -14 4 -20 15 -20 36 0 16 -4 29 -10 29 -5 0 -10
-14 -10 -31 0 -24 -4 -30 -17 -27 -13 2 -18 13 -18 38 0 34 1 35 43 38 31 2
44 -1 48 -12 3 -9 10 -16 15 -16 17 0 -10 38 -31 45 -11 3 -20 13 -20 21 0 8
-4 14 -10 14 -5 0 -10 -7 -10 -15z"/>
<path d="M55 440 c3 -5 11 -10 16 -10 6 0 7 5 4 10 -3 6 -11 10 -16 10 -6 0
-7 -4 -4 -10z"/>
<path d="M38 383 c7 -3 16 -2 19 1 4 3 -2 6 -13 5 -11 0 -14 -3 -6 -6z"/>
<path d="M30 330 c0 -5 5 -10 10 -10 6 0 10 5 10 10 0 6 -4 10 -10 10 -5 0
-10 -4 -10 -10z"/>
<path d="M38 273 c7 -3 16 -2 19 1 4 3 -2 6 -13 5 -11 0 -14 -3 -6 -6z"/>
<path d="M55 220 c-3 -5 -2 -10 4 -10 5 0 13 5 16 10 3 6 2 10 -4 10 -5 0 -13
-4 -16 -10z"/>
<path d="M170 95 c0 -8 2 -15 4 -15 2 0 6 7 10 15 3 8 1 15 -4 15 -6 0 -10 -7
-10 -15z"/>
<path d="M221 74 c0 -11 3 -14 6 -6 3 7 2 16 -1 19 -3 4 -6 -2 -5 -13z"/>
<path d="M281 64 c0 -11 3 -14 6 -6 3 7 2 16 -1 19 -3 4 -6 -2 -5 -13z"/>
</g>
</svg>
